# xmcd CD database file
#
# Track frame offsets:
#	150
#	14836
#	26462
#	37251
#	48480
#	59483
#	71396
#	84231
#	97545
#	109532
#	121333
#	135099
#	148533
#	160869
#	173198
#	186765
#
# Disc length: 2642 seconds
#
# Revision: 0
# Processed by: cddbd v1.5.2PL0 Copyright (c) Steve Scherf et al.
# Submitted via: CDex 1.40Release
#
DISCID=cb0a5010
DTITLE=Roy Rogers - The Great Singing Cowboys Disc-1
DYEAR=2005
DGENRE=Country
TTITLE0=Tumbling Tumbleweeds
TTITLE1=Yellow Rose Of Texas
TTITLE2=My Chickashay Gal
TTITLE3=Hi-Yo Silver
TTITLE4=Make Believe Cowboy
TTITLE5=Home On The Range
TTITLE6=Blue Shadows On The Trail
TTITLE7=Along The Navajo Trail
TTITLE8=Hold That Critter Down
TTITLE9=San Fernando Valley
TTITLE10=Pecos Bill
TTITLE11=My Heart Went That-A-Way
TTITLE12=On The Ols Spanish Trail
TTITLE13=When The Golden Train Comes Down
TTITLE14=A Little White Cross On The Hill
TTITLE15=Roll On Texas Moom
EXTD=YEAR: 2005 ID3G: 2
EXTT0=
EXTT1=
EXTT2=
EXTT3=
EXTT4=
EXTT5=
EXTT6=
EXTT7=
EXTT8=
EXTT9=
EXTT10=
EXTT11=
EXTT12=
EXTT13=
EXTT14=
EXTT15=
PLAYORDER=
